<svg width="726" height="402" viewBox="0 0 726 402" fill="none" xmlns="http://www.w3.org/2000/svg">
<path d="M192.742 317.141C193.393 310.37 193.719 302.492 193.719 293.508V214H150.91C149.394 226.544 145.109 237.161 138.055 245.852C128.289 258.091 115.008 264.211 98.2109 264.211C81.4141 264.211 68.263 258.156 58.7578 246.047C50.0339 234.979 45.6719 220.786 45.6719 203.469C45.6719 185.891 50.0339 171.568 58.7578 160.5C68.3932 148.13 81.5443 141.945 98.2109 141.945C113.836 141.945 126.661 147.609 136.688 158.938C144.483 167.656 149.208 178.677 150.862 192H193.719V107.766H149.773V129.25C133.888 111.411 113.966 102.492 90.0078 102.492C62.6641 102.492 40.6589 112.779 23.9922 133.352C8.4974 152.753 0.75 176.32 0.75 204.055C0.75 232.57 9.08333 256.333 25.75 275.344C42.2865 294.094 63.5104 303.469 89.4219 303.469C112.208 303.469 132.326 294.549 149.773 276.711V303.273C149.773 342.727 133.693 362.453 101.531 362.453C84.0833 362.453 70.8021 356.529 61.6875 344.68C57.7812 339.602 54.9818 332.375 53.2891 323H9.14844C11.7526 347.87 21.5182 367.336 38.4453 381.398C54.8516 395.07 75.75 401.906 101.141 401.906C131.219 401.906 154.852 392.01 172.039 372.219C181.154 361.932 187.273 349.628 190.398 335.305C191.44 330.096 192.221 324.042 192.742 317.141Z" fill="black"/>
<path d="M224.687 214C226.709 237.902 235.077 258.219 249.789 274.953C266.977 293.964 288.721 303.469 315.023 303.469C335.857 303.469 355.323 295.005 373.422 278.078V298H417.562V214H375.505C373.854 227.098 369.058 238.236 361.117 247.414C351.091 258.612 337.94 264.211 321.664 264.211C306.43 264.211 293.799 258.417 283.773 246.828C276.188 237.928 271.549 226.985 269.855 214H224.687Z" fill="black"/>
<path d="M269.777 192H224.589C226.428 168.013 234.828 147.682 249.789 131.008C266.846 111.997 288.201 102.492 313.852 102.492C335.987 102.492 355.844 111.607 373.422 129.836V107.766H417.562V192H375.435C373.719 179.138 368.947 168.183 361.117 159.133C351.091 147.805 338.07 142.141 322.055 142.141C306.951 142.141 294.32 147.87 284.164 159.328C276.225 168.504 271.429 179.395 269.777 192Z" fill="black"/>
<path d="M457.031 214V298H500.977V214H457.031Z" fill="black"/>
<path d="M500.977 192H457.031V107.766H500.977V192Z" fill="black"/>
<path d="M532.14 214C534.163 237.902 542.53 258.219 557.242 274.953C574.43 293.964 596.174 303.469 622.477 303.469C643.31 303.469 662.776 295.005 680.875 278.078V298H725.016V107.766H680.875V129.836C663.297 111.607 643.44 102.492 621.305 102.492C595.654 102.492 574.299 111.997 557.242 131.008C542.281 147.682 533.881 168.013 532.043 192H577.23C578.882 179.395 583.678 168.504 591.617 159.328C601.773 147.87 614.404 142.141 629.508 142.141C645.523 142.141 658.544 147.805 668.57 159.133C678.596 170.721 683.609 185.435 683.609 203.273C683.609 221.112 678.596 235.826 668.57 247.414C658.544 258.612 645.393 264.211 629.117 264.211C613.883 264.211 601.253 258.417 591.227 246.828C583.641 237.928 579.002 226.985 577.308 214H532.14Z" fill="black"/>
<path d="M458.789 8.74219C453.19 14.3411 450.391 20.9818 450.391 28.6641C450.391 36.737 453.19 43.5729 458.789 49.1719C464.388 54.7708 471.159 57.5703 479.102 57.5703C487.044 57.5703 493.75 54.7708 499.219 49.1719C504.818 43.5729 507.617 36.8021 507.617 28.8594C507.617 20.9167 504.818 14.2109 499.219 8.74219C493.62 3.14323 486.849 0.34375 478.906 0.34375C471.094 0.34375 464.388 3.14323 458.789 8.74219Z" fill="black"/>
</svg>
